<?xml version="1.0" encoding="UTF-8"?>
<svg width="57px" height="92px" viewBox="0 0 57 92" version="1.1" xmlns="http://www.w3.org/2000/svg" xmlns:xlink="http://www.w3.org/1999/xlink">
    <title>V2s Copy 4@1x</title>
    <g id="V2s-Copy-4" stroke="none" stroke-width="1" fill="none" fill-rule="evenodd">
        <g id="MONDIAL_RELAY" fill="#DD1829">
            <path d="M28.5,0 C14.25,0 0,10.4840759 0,32.2 C0,46.6772827 9.5,66.610616 28.5,92 C47.5,66.6133333 57,46.68 57,32.2 C57,10.48 42.75,0 28.5,0 Z" id="Path"></path>
        </g>
        <g id="MapPins_PostPoint_Default" transform="translate(15.8032, 21.5866)" fill="#FFFFFF" fill-rule="nonzero">
            <path d="M25.0688,0 C25.4082,0 25.6833,0.2751 25.6833,0.6144 C25.6833,0.9295 25.4461,1.1892 25.1405,1.2247 L25.0688,1.2289 L0.6144,1.2289 C0.2751,1.2289 0,0.9538 0,0.6144 C0,0.2993 0.2372,0.0396 0.5428,0.0041 L0.6144,0 L25.0688,0 Z" id="Path"></path>
            <path d="M2.6605,8.0368 C2.9756,8.0368 3.2353,8.274 3.2708,8.5795 L3.2749,8.6512 L3.2749,20.4299 L22.2055,20.4299 L22.2055,11.0352 C22.2055,10.7201 22.4427,10.4604 22.7483,10.4249 L22.82,10.4208 C23.1351,10.4208 23.3948,10.658 23.4303,10.9635 L23.4344,11.0352 L23.4344,21.0443 C23.4344,21.3594 23.1972,21.6191 22.8916,21.6546 L22.82,21.6587 L2.6605,21.6587 C2.3454,21.6587 2.0857,21.4215 2.0502,21.1159 L2.046,21.0443 L2.046,8.6512 C2.046,8.3119 2.3211,8.0368 2.6605,8.0368 Z" id="Path"></path>
            <path d="M9.3332,7.6251 C9.6483,7.6251 9.908,7.8623 9.9435,8.1679 L9.9476,8.2395 L9.9476,21.0443 C9.9476,21.3836 9.6725,21.6587 9.3332,21.6587 C9.0181,21.6587 8.7584,21.4215 8.7229,21.1159 L8.7188,21.0443 L8.7188,8.2395 C8.7188,7.9002 8.9939,7.6251 9.3332,7.6251 Z" id="Path"></path>
            <path d="M1.6655,0.6253 C1.7613,0.2997 2.1029,0.1135 2.4284,0.2093 C2.7307,0.2983 2.9129,0.5992 2.8606,0.9023 L2.8444,0.9722 L1.2755,6.301 L1.2752,6.3585 C1.2853,6.9231 1.5658,7.4494 2.0289,7.7725 L2.1309,7.8386 C2.6894,8.1738 3.3873,8.1738 3.9458,7.8386 C4.5043,7.5034 4.8326,6.8876 4.7995,6.237 C4.7822,5.8981 5.043,5.6094 5.3819,5.5921 C5.7208,5.5749 6.0095,5.8356 6.0267,6.1745 C6.0829,7.2785 5.5259,8.3234 4.5782,8.8923 C3.6304,9.4611 2.4463,9.4611 1.4985,8.8923 C0.5507,8.3234 -0.0063,7.2785 0.0499,6.1745 L0.0578,6.1027 L0.0741,6.0323 L1.6655,0.6253 Z" id="Path"></path>
            <path d="M6.2096,0.4112 C6.5217,0.4542 6.7467,0.7245 6.7403,1.0321 L6.7346,1.1036 L6.0288,6.2371 L6.0322,6.333 C6.0596,6.7127 6.2094,7.0736 6.4589,7.3612 L6.5457,7.4543 C6.8774,7.7851 7.3271,7.9704 7.7971,7.9692 C8.7972,7.9692 9.7425,7.177 9.8088,6.3032 L9.8125,6.2058 C9.8125,5.8664 10.0876,5.5913 10.4269,5.5913 C10.7663,5.5913 11.0413,5.8664 11.0413,6.2058 C11.0413,7.8366 9.4781,9.19810948 7.7987,9.19810948 C7.0038,9.2001 6.2407,8.8857 5.6779,8.3244 C5.1526,7.8004 4.842,7.1015 4.8029,6.3643 L4.7987,6.2058 L4.8044,6.1221 L5.5172,0.9363 C5.5601,0.6241 5.8304,0.3991 6.138,0.4056 L6.2096,0.4112 Z" id="Path"></path>
            <path d="M14.8151,0.2599 C15.1292,0.2353 15.4067,0.4515 15.4659,0.7534 L15.4756,0.8245 L15.895,6.1858 C15.9273,7.1804 16.7432,7.9697 17.7389,7.9692 C18.6985,7.9697 19.4914,7.2357 19.5758,6.2915 L19.5788,6.2334 L18.8084,1.1114 C18.7615,0.7998 18.9574,0.5077 19.2543,0.4271 L19.3246,0.4124 C19.6362,0.3655 19.9283,0.5614 20.0089,0.8583 L20.0236,0.9285 L20.8039,6.1143 L20.8104,6.2257 C20.7565,7.8833 19.3968,9.1989 17.7389,9.19800049 C16.1253,9.1989 14.7944,7.9535 14.6754,6.3852 L14.6683,6.2538 L14.2505,0.9205 C14.224,0.5822 14.4768,0.2864 14.8151,0.2599 Z" id="Path"></path>
            <path d="M10.7889,0.4066 C11.1035,0.4252 11.3487,0.6774 11.366,0.9845 L11.3659,1.0563 L11.0598,6.2073 C11.0586,6.6742 11.2432,7.1223 11.5729,7.4529 C11.9025,7.7834 12.3502,7.9692 12.8174,7.9692 C13.8125,7.9697 14.6283,7.1803 14.6607,6.1858 C14.6717,5.8466 14.9556,5.5806 15.2948,5.5917 C15.6339,5.6027 15.8999,5.8866 15.8889,6.2257 C15.835,7.8833 14.4752,9.1989 12.8171,9.19800046 C12.0237,9.19800046 11.263,8.8824 10.7028,8.3207 C10.1799,7.7965 9.8718,7.0981 9.8356,6.3341 L9.832,6.1694 L10.1392,0.9836 C10.1593,0.6449 10.4502,0.3865 10.7889,0.4066 Z" id="Path"></path>
            <path d="M23.2763,0.3331 C23.5781,0.2426 23.8951,0.3951 24.0169,0.6776 L24.0414,0.7451 L25.6267,6.0292 C25.6437,6.086 25.6524,6.1449 25.6526095,6.2042 C25.6546,6.9975 25.3409,7.759 24.7807,8.3207 C24.2204,8.8824 23.4597,9.19800046 22.6667,9.19800046 C21.0083,9.1989 19.6485,7.8833 19.5946,6.2257 C19.5836,5.8866 19.8496,5.6027 20.1887,5.5917 C20.5279,5.5806 20.8118,5.8466 20.8228,6.1858 C20.8551,7.1803 21.671,7.9697 22.6664,7.9692 C23.1333,7.9692 23.5809,7.7834 23.9106,7.4529 C24.2103,7.1524 24.3901,6.7547 24.4195,6.3341 L24.4212,6.2869 L22.8644,1.0982 C22.7738,0.7964 22.9264,0.4795 23.2089,0.3577 L23.2763,0.3331 Z" id="Path"></path>
            <path d="M7.2257,14.2364 C7.5408,14.2364 7.8005,14.4736 7.836,14.7792 L7.8401,14.8508 L7.8401,16.8969 C7.8401,17.2362 7.5651,17.5113 7.2257,17.5113 C6.9106,17.5113 6.6509,17.2741 6.6154,16.9685 L6.6113,16.8969 L6.6113,14.8508 C6.6113,14.5115 6.8864,14.2364 7.2257,14.2364 Z" id="Path"></path>
        </g>
    </g>
</svg>